<?xml version="1.0" encoding="UTF-8"?>
<svg version="1.1" xmlns="http://www.w3.org/2000/svg" width="225" height="67" >
<path style="fill:#FFF;" d="M16.712,29.118c-3.037,4.972-22.1,36.079-8.926,36.733c1.547,0.077,4.089-2.184,1.47-2.313 c-7.948-0.395,8.769-30.494,11.074-34.267C21.316,27.655,17.413,27.972,16.712,29.118L16.712,29.118z"/>
<path style="fill:#FFF;" d="M8.805,33.651c-2.713-2.539-5.145-6.053-4.675-9.916c0.403-3.307,5.183-5.663,7.852-6.775 c10.603-4.419,15.354,6.717,16.607,15.251c0.22,1.5,4.099,0.57,3.863-1.035c-0.906-6.174-2.739-12.864-8.502-16.182 c-3.839-2.21-8.921-1.641-12.89-0.146c-3.842,1.447-7.341,3.693-9.859,6.96c-3.286,4.264,0.872,10.468,4.035,13.429 C6.338,36.268,9.989,34.759,8.805,33.651L8.805,33.651z"/>
<path style="fill:#FFF;" d="M23.431,66.354c0.914-0.369,1.804-0.795,2.626-1.343c0.901-0.601,2.191-1.584,1.896-2.834 c-0.191-0.807-4.067,0.173-3.863,1.035c0.089,0.379,0,0.653-0.201,0.979c-0.09,0.146-0.202,0.254-0.325,0.373 c-0.197,0.191-0.365,0.315-0.454,0.376c-0.176,0.122-0.361,0.232-0.546,0.341c-0.103,0.061-0.208,0.117-0.313,0.174 c0.382-0.206,0.071-0.041-0.008-0.001c-0.213,0.105-1.067,0.458-0.132,0.081c-0.145,0.058-1.747,0.696-1.162,1.06 C21.568,66.98,22.833,66.596,23.431,66.354L23.431,66.354z"/>
<path style="fill:#FFF;" d="M71.69,28.405c2.084-4.087,5.626-11.716,1.796-15.686c-3.924-4.065-12.177,1.795-15.169,4.208 c-4.805,3.875-11.398,10.96-10.233,17.737c0.739,4.302,5.854,8.479,8.352,11.846c1.761,2.374,2.657,5.021,1.922,7.945 c-0.813,3.237-6.241,2.666-6.905-0.28c-0.25-1.109-4.126-0.132-3.863,1.035c1.175,5.218,9.664,3.31,12.685,1.289 c8.236-5.51-5.938-17.601-8.12-22.203c-3.283-6.927,8.048-16.727,12.945-19.642c9.535-5.677,4.615,10.674,2.752,14.327 C67.407,29.856,71.13,29.503,71.69,28.405L71.69,28.405z"/>
<path style="fill:#FFF;" d="M71.697,57.851c1.323-0.349,2.621-0.837,3.855-1.426c1.281-0.611,3.431-1.776,3.151-3.498 c-0.143-0.879-4.034-0.016-3.863,1.035c0.167,1.031-0.986,1.587-1.725,1.939c-0.254,0.121-0.918,0.372-1.421,0.54 c0.561-0.187-0.179,0.052-0.348,0.097c-0.36,0.095-1.925,0.542-1.756,1.174C69.759,58.345,71.336,57.946,71.697,57.851 L71.697,57.851z"/>
<path style="fill:#FFF;" d="M117.031,21.091c4.137-3.516,7.024-8.481,7.577-13.887c0.692-6.768-5.001-8.11-10.344-6.701 c-10.243,2.701-27.128,13.852-19.479,26.241c4.451,7.209-2.602,13.549-3.028,20.977c-0.335,5.824,4.187,6.465,8.615,4.95 c6.092-2.086,11.549-6.815,16.354-10.934c1.83-1.569,11.167-8.916,9.868-12.2c-0.308-0.779-2.131-0.164-2.621-0.001 c-2.912,0.968-4.848,5.408-6.232,7.809c-2.799,4.853-5.516,11.164-6.019,16.786c-0.272,3.042,4.929,0.642,5.961,0.151 c2.762-1.313,5.623-2.343,8.303-3.834c0.491-0.273,3.609-2.677,2.191-1.961c-0.982,0.118-1.964,0.236-2.946,0.354 c1.296,0.705,2.125,3.947,3.591,5.076c2.885,2.224,7.347,1.201,10.486,0.331c7.54-2.09,17.829-8.566,21.147-15.979 c0.83-1.854-2.453-1.102-3.184-0.829c-2.907,1.089-4.92,4.096-6.063,6.827c-3.244,7.746,6.169,9.631,11.609,8.116 c2.042-0.569,5.137-1.5,6.144-3.62c1.54-3.241-2.184-9.265-4.077-11.793c-1.951-2.606-4.137-3.728-7.303-2.542 c-2.688,1.007-3.072,3.095-0.625,4.699c6.133,4.018,14.887-3.307,19.778-6.346c7.258-4.51,14.872-8.854,21.553-14.209 c0.59-0.473,1.528-1.095,1.685-1.897c0.06-0.145,0.027-0.266-0.098-0.362c-2.134-1.092-4.365,1.199-5.586,2.617 c-4.106,4.769-7.083,10.853-7.929,17.085c-1.379,10.154,9.323,11.034,15.656,6.297c1.615-1.208-2.258-0.778-2.99-0.23 c-7.45,5.573-9.401-4.521-8.343-9.621c0.686-3.301,2.311-6.411,3.992-9.296c0.894-1.531,2.68-4.978,4.43-5.89 c-0.982,0.118-1.965,0.236-2.947,0.354c-0.478-0.245-9.442,6.699-10.485,7.377c-5.628,3.661-11.342,7.188-17.051,10.719 c-2.202,1.361-4.423,3.04-7.39,2.309c-0.936-0.275-1.637-0.831-2.104-1.666c0.337,0.578,2.301,2.264,2.717,2.924 c1.378,2.191,4.917,7.905,3.069,10.4c-2.22,2.999-8.353,1.651-9.969-1.276c-1.741-3.152,1.104-7.348,3.224-9.459 c-1.037-0.509-1.641-0.324-1.81,0.558c-0.364,0.669-0.794,1.294-1.29,1.875c-1.215,1.567-2.714,2.919-4.184,4.239 c-4.139,3.716-11.311,9.086-17.163,7.563c-3.479-0.906-3.192-6.694-6.861-5.711c-2.058,0.551-3.389,2.5-5.306,3.451 c-1.627,0.807-3.332,1.452-4.99,2.188c-1.998,0.888-0.981-0.646-0.453-2.665c1.122-4.292,2.783-8.595,4.796-12.543 c0.785-1.541,1.704-3.011,2.636-4.466c0.493-0.765,1.021-1.507,1.58-2.225c0.453-0.598,1.469-1.058,0.227-0.645 c-0.873,0-1.747-0.001-2.621-0.001c0.911,2.304-5.547,7.705-6.896,8.996c-3.896,3.728-8.21,7.065-12.765,9.946 c-1.956,1.238-5.244,3.586-6.88,0.705c-1.214-2.138-0.48-5.321,0.023-7.526c1.063-4.64,4.649-7.818,4.059-12.824 c-0.336-2.842-2.515-4.96-3.391-7.584c-0.953-2.858,0.664-6.257,1.938-8.75c2.406-4.706,6.234-7.516,10.824-9.812 c2.564-1.282,6.091-2.892,8.923-1.561c2.881,1.354,2.276,6.137,1.806,8.501c-0.812,4.073-3.74,7.983-6.86,10.635 C112.594,22.077,116.287,21.724,117.031,21.091L117.031,21.091z"/>
<path style="fill:#FFF;" d="M167.504,15.876c1.688-0.746,5.293-2.644,3.819-4.907c-0.417-0.639-2.038-0.157-2.536,0.043 c-0.528,0.212-1.513,0.726-1.069,1.407c0.195,0.3,0.1,0.568-0.036,0.859c-0.106,0.229-0.324,0.376-0.648,0.628 c-0.072,0.055-0.146,0.108-0.219,0.16c0.323-0.232-0.026,0.015-0.083,0.05c-0.165,0.103-0.334,0.198-0.504,0.291 c-0.13,0.071-0.261,0.137-0.394,0.202c0.608-0.3,0.346-0.161,0.203-0.099c-0.36,0.159-1.691,0.827-1.069,1.407 C165.562,16.473,166.87,16.157,167.504,15.876L167.504,15.876z"/>
<path style="fill:#FFF;" d="M200.133,25.247c5.071-4.667,14.576-10.143,21.396-3.95c1.243,1.129,4.629-0.712,2.984-2.205 c-8.418-7.646-20.508-1.481-27.604,5.05C195.145,25.766,198.906,26.376,200.133,25.247L200.133,25.247z"/>
</svg>